<svg version="1.1" id="Layer_1" xmlns="http://www.w3.org/2000/svg" xmlns:xlink="http://www.w3.org/1999/xlink" x="0px" y="0px"
	 width="100%" viewBox="0 0 1024 576" enable-background="new 0 0 1024 576" xml:space="preserve">
<path fill="#000000" opacity="1.000000" stroke="none" 
	d="
M485.902893,121.743866 
	C508.519379,126.953293 512.316650,149.025925 504.842224,161.775864 
	C504.337341,162.637039 503.810028,163.492050 503.216125,164.292801 
	C500.983215,167.303436 496.588470,169.787643 501.456909,174.199005 
	C507.591888,179.758026 512.781738,180.568542 517.686523,176.372009 
	C519.745239,174.610596 521.222778,172.394852 522.462402,170.013657 
	C523.923889,167.206329 525.233887,164.311630 526.833069,161.585953 
	C532.852600,151.326111 541.097107,144.420853 553.696045,144.657883 
	C566.191284,144.892975 574.914001,151.480118 580.080383,162.269287 
	C589.329956,181.585602 588.103821,200.526031 575.344788,217.957214 
	C564.334961,232.998672 543.103210,234.906738 531.818726,222.251251 
	C526.657898,216.463425 524.532471,209.488235 524.862183,201.695709 
	C527.670105,201.326248 528.106506,203.369003 529.015625,204.527084 
	C538.202454,216.229889 552.837158,218.261383 564.876282,209.410309 
	C577.857849,199.866333 581.914368,183.085495 574.395752,170.030182 
	C568.742432,160.213730 556.045532,158.026886 547.270020,165.290482 
	C542.785034,169.002792 540.074524,173.971588 537.238831,178.878510 
	C532.844238,186.483078 527.009644,192.051132 517.609070,192.288742 
	C514.154053,192.376083 513.883118,194.521515 514.341431,197.056244 
	C515.185730,201.725830 515.014038,206.362732 513.944946,210.935822 
	C509.896240,228.253784 492.854034,238.000259 473.887268,233.922440 
	C454.136993,229.676178 440.593750,214.760056 436.713501,192.932419 
	C435.860809,188.135574 434.952728,183.315109 437.187683,178.473282 
	C439.548401,184.868622 441.463287,191.300797 444.768646,197.236771 
	C453.533508,212.977097 471.704620,221.011185 487.508759,215.874893 
	C497.036896,212.778290 503.040192,204.861237 502.644714,195.913834 
	C502.112976,183.883987 493.942322,176.810196 482.064575,178.606094 
	C478.664551,179.120193 476.963806,178.362015 476.205872,175.199936 
	C475.245544,171.193283 472.730988,167.662766 472.376404,163.217102 
	C475.756500,161.943207 479.075928,162.987808 482.307892,162.781097 
	C487.817017,162.428757 492.353455,160.297470 495.484802,155.760727 
	C498.098328,151.974197 498.974579,147.770767 496.429840,143.559723 
	C493.824677,139.248734 486.535706,136.587326 480.895874,137.651764 
	C474.184753,138.918396 472.666382,139.778946 460.884033,149.094025 
	C457.024658,145.721756 454.697723,141.131042 452.123016,136.802429 
	C450.980469,134.881561 452.753418,133.371094 454.039337,132.089111 
	C462.779724,123.375572 473.327576,120.065994 485.902893,121.743866 
z"/>
<path fill="#000000" opacity="1.000000" stroke="none" 
	d="
M558.617188,307.535522 
	C534.871094,340.257568 483.491364,340.285645 460.280945,307.868896 
	C457.253540,303.640656 455.150635,298.958130 453.525879,294.007355 
	C452.428406,290.663269 453.154816,289.198730 456.802032,288.589996 
	C470.678894,286.273834 484.617523,286.086517 498.607391,286.833344 
	C501.131622,286.968109 503.634155,287.177521 505.431946,284.807953 
	C507.026489,282.706390 508.490906,280.731903 505.591400,278.460815 
	C497.196320,271.885162 496.138916,263.112274 498.972137,253.690994 
	C501.257812,246.090332 504.466278,238.792404 510.397949,231.259506 
	C512.321167,242.758606 519.976562,250.891708 520.761169,261.592377 
	C521.185242,267.374817 519.237671,272.388336 515.280334,276.619659 
	C513.610718,278.404846 511.286499,279.883057 512.771484,282.965576 
	C514.278748,286.094269 516.696106,286.968994 520.087158,286.890839 
	C531.903503,286.618591 543.732361,286.084015 555.525208,287.565979 
	C567.346191,289.051575 568.001282,290.168091 562.642151,300.798492 
	C561.521484,303.021362 560.105591,305.095459 558.617188,307.535522 
z"/>
<path fill="#000000" opacity="1.000000" stroke="none" 
	d="
M464.379272,83.375732 
	C431.195068,100.570068 410.728027,127.063004 405.751678,163.850113 
	C402.100128,190.843887 410.309052,215.221924 427.392303,236.511719 
	C428.487640,237.876770 430.184204,238.944824 430.054871,241.139206 
	C428.091522,241.784637 427.325226,240.138855 426.496338,239.133026 
	C408.336578,217.096130 398.130524,191.993469 399.945435,163.228943 
	C402.927338,115.968796 438.660889,75.529381 485.128448,65.651428 
	C525.568726,57.054745 561.006775,66.726646 589.847107,96.420250 
	C627.288635,134.969528 629.348389,194.149323 595.657532,236.009094 
	C594.340820,237.645050 593.185547,239.528305 590.706177,240.820099 
	C590.197083,237.889313 592.176758,236.574631 593.332092,235.096375 
	C603.493958,222.094193 610.025330,207.445450 612.628723,191.211670 
	C617.245239,162.425919 610.815063,136.244461 592.600342,113.364876 
	C572.274475,87.833344 545.553589,74.133690 512.985229,72.487106 
	C496.040405,71.630409 480.009918,76.039795 464.379272,83.375732 
z"/>
<path fill="#000000" opacity="1.000000" stroke="none" 
	d="
M521.608704,458.053406 
	C518.778137,458.097290 516.825256,458.835327 515.232910,460.942047 
	C513.184937,463.651611 510.753387,464.292847 508.323212,461.161011 
	C506.825989,459.231506 504.995789,458.160583 502.348480,458.246948 
	C498.893646,458.359711 496.918152,455.327393 494.026398,453.553345 
	C491.345551,455.852295 488.725342,456.686859 485.140656,454.517944 
	C483.456818,453.499084 480.369537,455.029816 477.921600,455.009216 
	C437.438049,454.668762 396.948608,454.580536 356.474396,453.755249 
	C332.981018,453.276184 309.492584,453.674164 286.007263,453.188385 
	C283.235779,453.131104 280.357239,453.610535 277.646545,452.306458 
	C278.014313,450.482971 279.454712,451.036072 280.439545,450.976288 
	C283.265106,450.804718 286.100342,450.761139 288.932434,450.733612 
	C328.081757,450.352783 367.237518,450.292145 406.378296,449.494904 
	C429.867981,449.016479 453.355225,448.970093 476.842072,448.628479 
	C480.851532,448.570129 484.926819,449.947723 488.927612,447.725586 
	C490.907990,446.625641 492.251190,449.507874 494.349426,449.938385 
	C497.217926,447.206421 500.066193,444.377777 504.668457,445.065430 
	C506.717255,445.371521 507.145325,443.112335 508.229218,441.961548 
	C510.276031,439.788483 512.450500,438.914734 514.428894,441.715332 
	C516.204895,444.229248 518.216187,445.511108 521.393127,445.439667 
	C522.705200,445.410156 524.264038,446.410492 525.325562,447.368958 
	C527.213989,449.074127 528.839966,450.457672 531.240540,448.161621 
	C531.755737,447.668823 532.816589,447.465515 533.578064,447.551971 
	C557.057617,450.218018 580.629761,448.333649 604.152222,448.949860 
	C633.960022,449.730713 663.794250,449.489502 693.604065,450.219696 
	C708.432129,450.582916 723.253174,450.496704 738.075623,450.734161 
	C740.274475,450.769379 742.640259,450.280670 745.217590,451.956879 
	C742.733826,453.697601 740.368042,453.221497 738.198303,453.231354 
	C717.036987,453.327515 695.873718,453.199799 674.714050,453.421875 
	C632.403137,453.865936 590.093445,454.444244 547.785400,455.106079 
	C543.250549,455.177002 538.620789,453.661621 534.106689,456.021027 
	C532.110962,457.064117 530.513000,454.797821 528.653198,453.884186 
	C526.448059,455.229828 524.214600,456.592743 521.608704,458.053406 
z"/>
<path fill="#000000" opacity="1.000000" stroke="none" 
	d="
M646.749390,269.650208 
	C635.890259,287.391541 620.804688,298.311218 600.406433,301.637146 
	C595.997253,302.356049 591.708435,303.827209 587.375549,304.994354 
	C584.618408,305.737000 580.743958,303.219269 579.899658,308.051422 
	C577.418823,306.954956 578.455017,305.516937 578.551880,304.331696 
	C580.764771,277.258118 593.925110,257.767059 618.729126,246.328506 
	C632.714111,239.879227 646.127319,232.571198 656.563660,220.839935 
	C656.962830,220.391266 657.638245,220.188309 659.287537,219.230606 
	C659.432983,237.613800 655.530640,254.015366 646.749390,269.650208 
M636.316833,249.974258 
	C631.029541,252.430740 625.752014,254.908463 620.453186,257.339813 
	C602.206543,265.712311 592.004028,280.807587 585.586487,299.056671 
	C585.392395,299.608673 585.561890,300.288513 585.561890,301.299713 
	C590.648132,299.276611 595.369263,297.397400 600.091370,295.520630 
	C619.819519,287.679962 634.371765,274.660126 641.400330,254.151550 
	C641.911133,252.661148 643.319946,251.083359 641.959717,249.482254 
	C640.354675,247.592957 638.617249,249.000854 636.316833,249.974258 
z"/>
<path fill="#000000" opacity="1.000000" stroke="none" 
	d="
M436.015472,303.993347 
	C435.676514,305.428040 434.778900,305.950745 433.426849,305.396973 
	C425.215698,302.033630 416.205841,301.686615 407.915802,298.695282 
	C386.408844,290.934753 373.613556,274.925720 366.166534,254.015915 
	C363.021729,245.185883 361.621704,235.980026 360.940002,226.665955 
	C360.787476,224.581802 360.259094,222.386490 361.552673,220.398621 
	C363.497650,219.871826 364.324219,221.422058 365.245483,222.420944 
	C373.865723,231.767487 384.491333,238.187759 395.822388,243.608780 
	C407.439484,249.166641 418.525848,255.363007 426.742432,265.784485 
	C436.125244,277.685120 439.312561,291.586243 440.703796,306.170044 
	C440.742554,306.576233 440.349091,307.023621 440.143799,307.481659 
	C437.965698,307.536560 437.551178,305.582672 436.091919,303.920807 
	C434.401459,299.926971 433.007233,296.545044 431.699432,293.130066 
	C425.742554,277.575287 415.536377,265.733765 400.766388,257.976715 
	C395.028839,254.963364 389.139709,252.233078 383.267670,249.484833 
	C381.688141,248.745560 379.866669,247.487488 378.181763,249.123108 
	C376.469604,250.785233 377.912994,252.594315 378.457214,254.222351 
	C384.761078,273.079498 397.661926,285.748383 415.646179,293.565247 
	C422.659698,296.613708 429.775055,299.443390 436.015472,303.993347 
z"/>
<path fill="#000000" opacity="1.000000" stroke="none" 
	d="
M561.841064,401.987579 
	C561.849915,388.827301 561.908813,376.164154 561.835510,363.501770 
	C561.800171,357.404541 563.796326,350.287354 554.508484,348.828003 
	C555.844238,346.336945 557.511963,346.808441 558.913086,346.805511 
	C568.576416,346.785248 578.250854,346.554688 587.900757,346.930298 
	C602.706177,347.506653 611.786926,357.606628 610.162842,371.153381 
	C608.870483,381.933319 599.635315,389.512543 586.710938,390.291443 
	C583.889160,390.461548 581.047546,390.373383 578.217163,390.311005 
	C574.906311,390.238037 573.166199,391.887329 573.130920,395.094727 
	C573.063110,401.255524 573.150391,407.418213 573.198792,413.579956 
	C573.235168,418.208221 576.952148,419.300293 580.482300,420.589783 
	C576.968506,423.562073 561.553528,423.848663 554.754333,420.997772 
	C565.374023,417.684509 560.876038,409.151611 561.841064,401.987579 
M585.591736,386.355591 
	C595.422424,383.282166 600.267822,375.157135 598.473572,364.754730 
	C596.898499,355.623016 590.524292,350.926239 580.086243,351.206238 
	C574.921997,351.344788 573.300354,352.828735 573.138489,358.123474 
	C572.961060,363.931580 573.016357,369.747314 573.003662,375.559784 
	C572.978516,387.068756 572.988037,387.068787 585.591736,386.355591 
z"/>
<path fill="#000000" opacity="1.000000" stroke="none" 
	d="
M380.429810,421.256287 
	C384.103424,418.914093 385.064789,415.760315 384.933899,411.749756 
	C384.700500,404.595947 384.967621,397.426788 384.789520,390.269928 
	C384.624237,383.629669 380.844513,380.084137 374.424530,380.138702 
	C368.334137,380.190460 363.400085,384.656677 363.283417,390.580658 
	C363.132599,398.238068 363.352173,405.902740 363.208588,413.560425 
	C363.138062,417.321350 364.824097,419.736938 368.493652,421.446259 
	C361.209869,422.825378 354.417969,422.452332 347.081757,421.723145 
	C354.637390,418.187958 352.628113,411.735626 352.661224,406.058624 
	C352.751556,390.571045 352.621918,375.082031 352.739746,359.594818 
	C352.776398,354.776978 352.845215,350.174530 346.415314,347.969360 
	C351.484467,345.095734 356.173187,345.210541 360.620789,344.926727 
	C363.684692,344.731201 363.341797,347.781464 363.361145,349.841858 
	C363.428314,357.001587 363.296448,364.163025 363.346405,371.323120 
	C363.385345,376.905304 364.843414,377.786652 370.037476,375.585663 
	C384.260925,369.558563 395.286133,376.761047 395.346283,392.126831 
	C395.367767,397.622589 395.354492,403.118439 395.375488,408.614197 
	C395.394348,413.544952 394.361908,418.918915 401.166473,421.349091 
	C393.910400,423.336243 387.186462,422.976776 380.429810,421.256287 
z"/>
<path fill="#000000" opacity="1.000000" stroke="none" 
	d="
M315.908051,390.110718 
	C309.055511,387.033569 302.114868,384.951569 296.790253,379.793671 
	C287.296570,370.597198 289.154297,355.673584 300.804199,349.388123 
	C312.608948,343.019135 324.383026,345.719086 336.050934,350.037933 
	C337.167847,350.451324 338.105469,351.308807 338.143433,352.617279 
	C338.285400,357.508423 338.760986,362.423859 337.894135,367.571838 
	C335.199951,366.964935 335.278961,365.050232 334.795990,363.618622 
	C331.005554,352.382965 319.255157,346.744446 308.329102,350.954224 
	C299.554535,354.335022 297.421112,364.699066 304.158356,371.277527 
	C306.707275,373.766266 309.832489,375.308655 313.063232,376.714233 
	C319.625061,379.568939 326.382843,382.008728 332.488007,385.844391 
	C339.528687,390.267853 342.681763,396.750214 342.011414,404.880280 
	C341.343353,412.982361 336.481689,418.386017 329.287750,421.447418 
	C316.491821,426.892792 304.132507,423.787292 291.993744,418.791962 
	C291.052124,418.404449 290.094910,417.744751 290.029175,416.689087 
	C289.674835,410.998016 289.322144,405.294281 290.235138,398.964417 
	C292.911591,400.670258 292.954742,402.765442 293.533600,404.534637 
	C297.460449,416.536469 310.499023,423.042328 322.514954,419.074738 
	C327.628937,417.386139 330.572876,413.819061 331.625977,408.753143 
	C332.752350,403.334778 330.858978,398.736328 326.377991,395.635651 
	C323.257751,393.476562 319.646759,392.026733 315.908051,390.110718 
z"/>
<path fill="#000000" opacity="1.000000" stroke="none" 
	d="
M661.137451,414.304352 
	C661.335571,417.870270 664.398804,418.629150 666.253052,420.415527 
	C661.838013,423.379944 653.748230,423.264954 650.177185,420.241425 
	C648.420044,418.753632 647.047363,419.827362 645.678467,420.672607 
	C642.483521,422.645447 639.048645,423.827209 635.302246,423.830658 
	C625.577454,423.839661 619.465210,418.710236 618.537903,408.976135 
	C617.893066,402.207947 618.208069,395.347504 618.113831,388.527985 
	C618.050476,383.939636 619.151672,378.898865 612.096924,376.995972 
	C617.289490,374.043976 621.899414,374.726471 626.208801,374.223083 
	C628.820190,373.918091 628.365845,376.600037 628.369385,378.364929 
	C628.385132,386.355804 628.330688,394.347107 628.392273,402.337524 
	C628.407532,404.317871 628.573242,406.336792 628.994751,408.267059 
	C630.429993,414.840149 634.093384,417.597595 640.236328,416.930267 
	C646.541809,416.245300 650.528564,411.985931 650.604553,405.702606 
	C650.675049,399.876587 650.463928,394.042908 650.685852,388.224335 
	C650.867859,383.452087 650.327026,379.243805 644.386780,376.940247 
	C649.500488,374.006226 654.359253,374.432617 658.916504,374.468567 
	C661.355896,374.487793 660.857300,377.549835 660.875488,379.457214 
	C660.984741,390.932281 661.023010,402.408020 661.137451,414.304352 
z"/>
<path fill="#000000" opacity="1.000000" stroke="none" 
	d="
M699.592163,421.839783 
	C690.558350,414.872742 691.386780,403.593445 700.935791,398.220306 
	C705.220459,395.809326 709.962341,394.885193 714.679749,393.940796 
	C718.365417,393.202911 720.861633,391.699066 720.695618,387.427948 
	C720.533752,383.260773 719.274902,379.696442 714.940063,378.530304 
	C710.969116,377.462006 707.293335,378.319305 705.022400,382.249542 
	C704.529663,383.102386 704.248413,384.084778 703.924683,385.026398 
	C703.198792,387.137451 702.182617,388.693756 699.573181,387.559540 
	C697.182007,386.520233 696.430115,384.737518 697.216064,382.299225 
	C697.417480,381.674255 697.739929,381.071777 698.095154,380.515411 
	C701.374695,375.378387 711.137451,372.374054 718.966248,374.073639 
	C726.246033,375.654053 729.342102,379.086548 730.552002,387.030243 
	C731.660889,394.310699 730.778564,401.640930 731.022949,408.944427 
	C731.176331,413.530365 730.131775,418.632477 737.047913,420.274719 
	C732.136414,423.108826 727.673096,423.522308 723.679565,420.542633 
	C721.133850,418.643158 719.442932,418.920715 717.067505,420.475494 
	C711.694031,423.992523 705.916504,424.455170 699.592163,421.839783 
M712.268982,398.803467 
	C708.971558,399.850159 706.249023,401.621002 704.719971,404.862457 
	C703.014648,408.477448 702.856506,412.068604 705.822144,415.041992 
	C708.676453,417.903748 712.186584,417.369904 715.617493,416.078064 
	C721.633911,413.812622 720.770691,408.637878 720.693298,403.850159 
	C720.594299,397.729523 718.913940,396.600525 712.268982,398.803467 
z"/>
<path fill="#000000" opacity="1.000000" stroke="none" 
	d="
M504.415466,413.382690 
	C495.542755,396.485962 501.937042,379.110657 518.453796,374.361023 
	C530.254456,370.967560 542.280457,377.579407 545.010315,388.961639 
	C546.226562,394.032959 545.328979,395.232269 540.052795,395.277588 
	C532.736572,395.340454 525.415710,395.171082 518.104065,395.368469 
	C511.437073,395.548492 509.860992,398.008118 511.877136,404.397247 
	C516.039734,417.588440 530.989685,421.277496 540.976501,411.615326 
	C542.089844,410.538116 542.730591,408.658112 544.818665,408.888275 
	C544.937744,414.638641 539.949036,420.048340 532.079651,422.752502 
	C522.261841,426.126282 511.310333,422.512024 504.415466,413.382690 
M523.512695,391.067993 
	C525.330017,391.050934 527.149780,391.089142 528.964111,391.006134 
	C533.874451,390.781464 535.039368,388.853424 533.062927,384.310486 
	C529.930908,377.111328 520.045227,375.706329 515.071228,381.843231 
	C513.427307,383.871429 511.579132,386.157013 512.906982,389.016693 
	C514.144165,391.681061 516.877441,390.804382 519.084717,391.014587 
	C520.231873,391.123810 521.395996,391.055695 523.512695,391.067993 
z"/>
<path fill="#000000" opacity="1.000000" stroke="none" 
	d="
M449.759766,408.947815 
	C445.842957,398.185486 447.684387,388.625122 455.138489,380.745728 
	C461.559998,373.957794 469.913391,372.005615 479.040070,374.642700 
	C486.654205,376.842773 490.943604,382.212555 492.867096,389.695435 
	C493.842926,393.491638 492.572906,395.395996 488.442627,395.341919 
	C481.278168,395.248077 474.110199,395.265930 466.945709,395.371582 
	C459.474915,395.481720 457.167755,399.220978 460.172699,406.119019 
	C465.421539,418.168060 478.940308,420.840637 488.566193,411.757690 
	C489.716858,410.671967 490.469757,409.001282 492.362274,408.746582 
	C492.963501,414.311890 486.872864,420.601562 478.806732,422.939728 
	C467.138367,426.322144 455.079041,420.641388 449.759766,408.947815 
M481.713745,387.673950 
	C480.212677,381.433167 477.235046,378.232422 472.052795,377.893860 
	C467.084229,377.569214 463.412292,380.009033 461.145691,384.320282 
	C459.633209,387.197205 459.635925,390.323212 463.613251,390.726044 
	C468.701935,391.241516 473.879791,390.921692 479.018341,390.871307 
	C480.483124,390.856964 481.518158,390.059753 481.713745,387.673950 
z"/>
<path fill="#000000" opacity="1.000000" stroke="none" 
	d="
M592.416992,321.615540 
	C587.936218,318.981262 583.381042,317.549866 578.455139,315.744232 
	C587.340149,309.765228 596.650146,304.912292 607.420166,303.511963 
	C623.891174,301.370331 636.074097,310.693390 648.868835,318.787262 
	C637.838928,331.880432 611.574646,333.117188 592.416992,321.615540 
M629.585632,317.806641 
	C623.368286,310.347900 604.584351,307.085083 596.249451,312.006042 
	C593.739075,313.488190 593.885498,315.243042 596.164856,316.537842 
	C605.197998,321.669098 614.634338,324.928009 625.199707,321.878082 
	C627.115479,321.325043 629.174133,320.973358 629.585632,317.806641 
z"/>
<path fill="#000000" opacity="1.000000" stroke="none" 
	d="
M392.087769,329.259460 
	C383.736176,327.326141 376.138031,324.720673 369.542908,319.606262 
	C386.356812,300.540131 423.550537,298.634857 440.653717,316.278320 
	C427.449921,318.477142 417.765198,328.655273 404.410278,329.775909 
	C400.367676,330.115112 396.463074,329.872314 392.087769,329.259460 
M391.780975,314.247223 
	C390.087036,315.259979 387.981110,316.080139 388.384766,318.581757 
	C388.779938,321.030518 391.046417,321.265656 392.923553,321.800201 
	C403.141815,324.710114 412.567535,322.261230 421.624023,317.465454 
	C423.058807,316.705658 424.917114,316.073029 424.614990,313.992157 
	C424.321228,311.969025 422.338715,311.869141 420.815765,311.331787 
	C410.963196,307.855164 401.576874,309.493073 391.780975,314.247223 
z"/>
<path fill="#000000" opacity="1.000000" stroke="none" 
	d="
M422.307251,398.082886 
	C422.308075,402.228668 422.348846,405.888062 422.297607,409.546143 
	C422.231323,414.279572 421.717743,419.185638 428.317200,421.085052 
	C420.781616,423.720551 413.818390,422.666595 406.330811,421.498474 
	C413.618500,418.386200 411.773773,412.302338 411.837677,406.927002 
	C411.912811,400.608154 411.721710,394.284241 411.890167,387.969055 
	C412.011505,383.420532 411.658203,379.280029 406.592896,377.293884 
	C412.181641,372.903259 420.346222,373.376221 423.899933,378.088776 
	C425.888641,378.174591 427.145538,376.648376 428.723389,375.811157 
	C433.226776,373.421600 437.854736,372.553009 442.467194,375.348297 
	C445.472748,377.169800 445.725952,379.922302 443.790527,382.629852 
	C442.046448,385.069733 439.548584,386.294373 437.062317,383.725739 
	C431.163574,377.631561 422.805450,383.801697 422.409027,390.613617 
	C422.273956,392.935181 422.334930,395.268188 422.307251,398.082886 
z"/>
<path fill="#000000" opacity="1.000000" stroke="none" 
	d="
M510.420410,124.647003 
	C522.140015,132.604202 534.257080,127.749985 541.483521,119.423820 
	C545.541016,114.748962 545.606689,114.805969 549.504150,119.660217 
	C556.485596,128.355469 556.228210,130.014740 546.890137,136.512848 
	C528.711304,149.163010 501.315247,136.931839 498.617615,114.946686 
	C498.521149,114.160484 498.688019,113.341980 499.241760,112.184578 
	C502.655457,116.536156 505.161163,121.639854 510.420410,124.647003 
z"/>
<path fill="#000000" opacity="1.000000" stroke="none" 
	d="
M686.175171,420.820282 
	C685.717712,432.721985 681.723389,439.149170 673.373779,441.664795 
	C669.969666,442.690460 666.550537,443.050018 663.543579,440.681274 
	C663.481201,439.100647 664.509216,438.987579 665.492676,438.708191 
	C671.995178,436.860901 675.462708,433.080597 675.604431,426.264587 
	C675.895142,412.277832 675.697205,398.281433 675.783020,384.289520 
	C675.805542,380.620361 673.466187,378.702850 669.702454,377.112061 
	C674.875793,373.956421 679.638672,374.585907 684.070557,374.467529 
	C686.588318,374.400269 686.149780,377.470184 686.156921,379.365326 
	C686.208374,393.025024 686.178162,406.684998 686.175171,420.820282 
z"/>
<path fill="#000000" opacity="1.000000" stroke="none" 
	d="
M459.176697,497.827942 
	C457.345551,494.325592 456.231262,490.830994 453.526337,487.662567 
	C451.272552,491.346008 452.516632,494.884155 452.115204,498.187714 
	C451.889679,500.043671 451.851593,502.149506 449.259125,501.975128 
	C446.987488,501.822296 447.019379,499.817352 447.005219,498.172943 
	C446.945129,491.188477 446.948730,484.203308 446.951965,477.218414 
	C446.952759,475.498322 447.117188,473.796356 449.241272,473.336212 
	C451.274841,472.895660 452.914062,473.586182 453.825043,475.453705 
	C455.646515,479.187866 457.321350,482.993347 459.119720,486.739136 
	C459.809174,488.175171 460.124115,490.250214 462.229126,490.153229 
	C464.122009,490.066010 464.828125,488.260071 465.571320,486.786163 
	C467.367432,483.224152 469.139099,479.648682 470.847809,476.044128 
	C471.823761,473.985352 473.312286,472.867828 475.595184,473.365295 
	C478.190521,473.930878 477.490021,476.057343 477.483459,477.821716 
	C477.458130,484.639069 477.456146,491.456543 477.404449,498.273682 
	C477.392395,499.867371 477.821960,501.944275 475.304230,501.989166 
	C472.990356,502.030396 472.832642,500.149628 472.808594,498.440277 
	C472.760498,495.021912 472.794373,491.602356 472.794373,486.732422 
	C468.093964,490.469757 467.428680,494.724182 465.461182,498.128387 
	C463.204529,502.032837 461.989655,502.056061 459.176697,497.827942 
z"/>
<path fill="#000000" opacity="1.000000" stroke="none" 
	d="
M621.884033,485.034088 
	C621.866211,483.707397 621.699341,482.841278 621.868530,482.046631 
	C622.588806,478.662872 619.503967,473.441101 626.333740,472.975189 
	C636.783325,472.262421 641.584045,474.575745 642.825989,481.024963 
	C643.263916,483.298981 643.069702,485.617554 641.565430,487.179047 
	C638.133423,490.741364 639.227051,493.876556 641.701050,497.243805 
	C642.552612,498.402802 643.486084,499.682495 643.205017,501.396362 
	C640.837097,502.999969 639.128967,501.998749 637.702881,500.069946 
	C636.912598,499.001068 636.322266,497.784485 635.532898,496.714813 
	C634.116943,494.796234 633.387146,491.835876 630.092651,492.440521 
	C626.614502,493.078888 627.229065,495.977112 627.055115,498.405884 
	C626.933594,500.103729 626.815125,502.016296 624.533508,502.005646 
	C621.941467,501.993591 621.916687,499.888123 621.898865,498.026794 
	C621.858948,493.860718 621.888367,489.694000 621.884033,485.034088 
M627.307983,484.904114 
	C628.909363,488.812073 631.986572,488.032959 634.729248,486.865295 
	C637.268494,485.784241 638.525513,483.326019 637.341187,480.710327 
	C635.999634,477.747406 633.102661,477.297485 630.127625,477.801971 
	C626.152649,478.476013 627.439209,481.653687 627.307983,484.904114 
z"/>
<path fill="#000000" opacity="1.000000" stroke="none" 
	d="
M569.810181,492.137390 
	C572.342651,497.151794 576.249451,498.595490 581.200867,497.713257 
	C583.113647,497.372437 584.733765,496.569244 584.851379,494.293884 
	C584.980896,491.786865 583.337280,491.292633 581.294250,491.203918 
	C579.744263,491.136627 578.074890,490.864380 578.114807,488.866425 
	C578.164001,486.403900 580.246338,486.768097 581.827881,486.681580 
	C583.484863,486.590942 585.152527,486.713013 586.812744,486.658051 
	C589.369141,486.573456 590.190979,487.860077 590.387878,490.301483 
	C591.205322,500.437164 581.973206,506.045715 571.922852,501.427307 
	C564.253113,497.902863 561.257874,488.093079 565.402405,480.071564 
	C568.965271,473.175873 578.829651,470.530823 585.779236,474.655945 
	C587.304321,475.561218 589.511841,476.510559 588.505249,478.714905 
	C587.291382,481.373230 585.259155,480.075470 583.501282,478.990662 
	C579.648987,476.613373 575.765320,476.715210 572.425049,479.678864 
	C568.759766,482.930847 567.424500,487.038452 569.810181,492.137390 
z"/>
<path fill="#000000" opacity="1.000000" stroke="none" 
	d="
M534.947998,500.161011 
	C533.159851,503.576874 531.028259,502.316772 530.173462,500.211853 
	C528.517212,496.133545 525.881775,495.032715 521.687561,495.104340 
	C517.649536,495.173279 514.614990,495.682281 513.192261,500.076935 
	C512.450867,502.367035 510.503662,502.791962 507.753204,500.917358 
	C511.395050,492.353210 514.890320,483.617310 518.850891,475.097717 
	C520.253906,472.079834 523.562317,472.742279 525.118347,476.318604 
	C528.497864,484.085968 531.658386,491.948639 534.947998,500.161011 
M518.573486,489.140228 
	C520.272339,491.424866 522.829712,491.209961 523.907837,489.384003 
	C525.323792,486.985840 523.863586,484.572540 521.565186,482.860382 
	C519.573975,484.401215 518.916931,486.376160 518.573486,489.140228 
z"/>
<path fill="#000000" opacity="1.000000" stroke="none" 
	d="
M414.006073,502.082520 
	C413.012726,501.522705 412.009644,501.113617 411.831024,500.474182 
	C410.386810,495.304657 406.617706,494.955383 402.121460,495.140137 
	C398.811859,495.276093 396.303406,495.754364 395.255371,499.369415 
	C394.705566,501.265778 393.285950,502.747559 391.132477,501.830780 
	C388.802521,500.838867 390.197845,498.944366 390.757935,497.565948 
	C393.631531,490.494049 396.607605,483.463348 399.603577,476.441956 
	C400.253876,474.917969 401.027252,473.337524 403.019257,473.212952 
	C405.329163,473.068512 406.111237,474.808990 406.836426,476.517426 
	C409.884430,483.698029 412.958710,490.868317 415.904755,498.090759 
	C416.555817,499.686890 417.535461,501.793915 414.006073,502.082520 
M405.825958,486.681763 
	C405.171661,485.244202 404.852722,483.548645 402.780914,482.886932 
	C400.948303,484.955078 399.799225,487.236786 400.067047,490.717804 
	C402.369812,489.537598 406.672394,493.499725 405.825958,486.681763 
z"/>
<path fill="#000000" opacity="1.000000" stroke="none" 
	d="
M353.777222,502.115845 
	C349.131348,503.470520 345.164032,502.859833 341.652039,500.101196 
	C340.501953,499.197845 339.188995,498.019379 340.409119,496.344086 
	C341.475677,494.879517 342.853058,494.938019 344.315979,495.982727 
	C345.248474,496.648651 346.266754,497.392883 347.346802,497.615265 
	C350.194519,498.201660 353.399261,498.497131 354.438568,494.997864 
	C355.409607,491.728424 352.443420,490.922272 350.111053,490.029449 
	C349.027740,489.614807 347.889130,489.343384 346.809143,488.921295 
	C341.735138,486.938019 339.480621,483.689392 340.343353,479.665466 
	C341.247925,475.446472 345.033112,472.774750 350.044617,472.746033 
	C352.462616,472.732208 354.655914,473.388031 356.543823,474.861511 
	C357.687653,475.754303 359.202606,476.754639 357.999817,478.508362 
	C356.919952,480.082855 355.509399,479.665955 354.068176,478.794708 
	C353.092255,478.204773 352.002014,477.647064 350.897552,477.459412 
	C348.618347,477.072174 346.345612,477.456970 345.589783,479.975769 
	C344.776855,482.684753 346.798309,483.834900 348.955933,484.612488 
	C350.358978,485.118103 351.825256,485.450287 353.222626,485.969360 
	C356.854370,487.318451 359.861633,489.474762 360.078705,493.655334 
	C360.293152,497.785400 357.824921,500.420502 353.777222,502.115845 
z"/>
<path fill="#000000" opacity="1.000000" stroke="none" 
	d="
M523.746582,100.414009 
	C524.492981,101.087570 525.004456,101.522751 525.441528,102.023026 
	C534.089417,111.921776 534.852722,108.620735 524.668884,119.187637 
	C522.868652,121.055542 521.380615,121.286514 519.163025,119.464760 
	C510.230865,112.126801 510.353760,107.060905 519.829834,100.436172 
	C521.090820,99.554649 522.200378,99.339615 523.746582,100.414009 
z"/>
<path fill="#000000" opacity="1.000000" stroke="none" 
	d="
M675.715698,494.873993 
	C675.715515,489.094238 675.647339,483.798004 675.747375,478.504883 
	C675.784851,476.519958 674.967468,473.618408 678.200378,473.496918 
	C681.424805,473.375702 680.949158,476.242859 680.970703,478.273346 
	C681.037354,484.560059 681.027527,490.849854 680.891479,497.135101 
	C680.848206,499.132568 681.357300,502.012634 678.119263,501.935486 
	C675.198669,501.865906 675.915161,499.204895 675.729248,497.343323 
	C675.663818,496.687836 675.716003,496.020599 675.715698,494.873993 
z"/>
<path fill="#000000" opacity="1.000000" stroke="none" 
	d="
M677.023865,364.447327 
	C673.803101,361.559357 673.477600,358.498688 675.773193,355.428802 
	C677.530823,353.078400 680.049072,352.448486 682.822327,353.736847 
	C685.802368,355.121277 686.727783,357.628387 686.240295,360.678497 
	C685.623718,364.536194 682.694824,365.804626 677.023865,364.447327 
z"/>
</svg>